%TF.GenerationSoftware,Altium Limited,Altium Designer,25.8.1 (18)*%
G04 Layer_Color=32896*
%FSLAX45Y45*%
%MOMM*%
%TF.SameCoordinates,F397BE87-363C-4AE2-8B00-A23A2701063B*%
%TF.FilePolarity,Positive*%
%TF.FileFunction,Legend,Bot*%
%TF.Part,Single*%
G01*
G75*
%TA.AperFunction,NonConductor*%
%ADD30C,0.25000*%
%ADD31C,0.20000*%
%ADD32C,0.15000*%
%ADD33C,0.12700*%
%ADD34C,0.30000*%
%ADD35C,0.10000*%
D30*
X2889300Y2692335D02*
G03*
X2889300Y2692335I-12500J0D01*
G01*
D31*
X3188700Y3539400D02*
G03*
X3188700Y3539400I-10000J0D01*
G01*
X2834900Y3076600D02*
G03*
X2834900Y3076600I-10000J0D01*
G01*
X2814100Y2983000D02*
X2889100D01*
X2934100Y3113000D02*
X2984100D01*
X3104100Y2983000D02*
Y3078400D01*
X2814100Y2983000D02*
Y3078400D01*
X3029100Y2983000D02*
X3104100D01*
X3056100Y2768600D02*
X3116100D01*
X2826800Y2459235D02*
Y2468365D01*
Y2459235D02*
X3116800D01*
Y2468365D01*
X2826800D02*
X3116800D01*
X2650900Y2264600D02*
Y2344600D01*
Y2684600D02*
Y2764600D01*
X2425900D02*
X2650900D01*
X2425900Y2264600D02*
X2650900D01*
X2225900Y2384600D02*
Y2644600D01*
D32*
X2921000Y2824800D02*
Y2864800D01*
X3060700Y3231200D02*
Y3271200D01*
X2895600Y3231200D02*
Y3271200D01*
X2921000Y2215200D02*
Y2255200D01*
D33*
X3283700Y3560100D02*
Y3640100D01*
X3511200D01*
X3283700Y3040100D02*
Y3120100D01*
Y3040100D02*
X3511200D01*
X3708700Y3160100D02*
Y3520100D01*
X3066300Y3579400D02*
X3121800D01*
X2821800D02*
X2877300D01*
X3066300Y3329400D02*
X3121800D01*
X2821800D02*
X2877300D01*
X3121800Y3573900D02*
Y3579400D01*
X2821800Y3573900D02*
Y3579400D01*
X3121800Y3329400D02*
Y3334900D01*
X2821800Y3329400D02*
Y3334900D01*
X2425900Y3626600D02*
X2659900D01*
Y3537600D02*
Y3626600D01*
X2234900Y3037600D02*
Y3515600D01*
X2425900Y2926600D02*
X2659900D01*
Y3015600D01*
X3283700Y2759200D02*
Y2839200D01*
X3511200D01*
X3283700Y2239200D02*
Y2319200D01*
Y2239200D02*
X3511200D01*
X3708700Y2359200D02*
Y2719200D01*
D34*
X3222700Y3585100D02*
G03*
X3222700Y3585100I-10000J0D01*
G01*
Y2784200D02*
G03*
X3222700Y2784200I-10000J0D01*
G01*
D35*
X2805900Y2414600D02*
G03*
X2805900Y2414600I-5000J0D01*
G01*
%TF.MD5,ccd814181c9f9b580a97bee89045ebe6*%
M02*
