%TF.GenerationSoftware,Altium Limited,Altium Designer,25.8.1 (18)*%
G04 Layer_Physical_Order=4*
G04 Layer_Color=16711680*
%FSLAX45Y45*%
%MOMM*%
%TF.SameCoordinates,B646849D-B937-4B77-9D6D-868C213BF6CA*%
%TF.FilePolarity,Positive*%
%TF.FileFunction,Copper,L4,Bot,Signal*%
%TF.Part,Single*%
G01*
G75*
%TA.AperFunction,SMDPad,CuDef*%
G04:AMPARAMS|DCode=10|XSize=0.76mm|YSize=0.6604mm|CornerRadius=0.08255mm|HoleSize=0mm|Usage=FLASHONLY|Rotation=180.000|XOffset=0mm|YOffset=0mm|HoleType=Round|Shape=RoundedRectangle|*
%AMROUNDEDRECTD10*
21,1,0.76000,0.49530,0,0,180.0*
21,1,0.59490,0.66040,0,0,180.0*
1,1,0.16510,-0.29745,0.24765*
1,1,0.16510,0.29745,0.24765*
1,1,0.16510,0.29745,-0.24765*
1,1,0.16510,-0.29745,-0.24765*
%
%ADD10ROUNDEDRECTD10*%
%ADD12R,1.55000X0.60000*%
G04:AMPARAMS|DCode=15|XSize=0.55mm|YSize=0.5mm|CornerRadius=0.0625mm|HoleSize=0mm|Usage=FLASHONLY|Rotation=90.000|XOffset=0mm|YOffset=0mm|HoleType=Round|Shape=RoundedRectangle|*
%AMROUNDEDRECTD15*
21,1,0.55000,0.37500,0,0,90.0*
21,1,0.42500,0.50000,0,0,90.0*
1,1,0.12500,0.18750,0.21250*
1,1,0.12500,0.18750,-0.21250*
1,1,0.12500,-0.18750,-0.21250*
1,1,0.12500,-0.18750,0.21250*
%
%ADD15ROUNDEDRECTD15*%
%ADD18R,0.65000X0.65000*%
%ADD20R,1.80000X1.20000*%
%TA.AperFunction,Conductor*%
%ADD21C,0.20000*%
%ADD22C,0.50000*%
%TA.AperFunction,ViaPad*%
%ADD23C,0.50000*%
%TA.AperFunction,SMDPad,CuDef*%
G04:AMPARAMS|DCode=24|XSize=1.23971mm|YSize=0.52583mm|CornerRadius=0.26292mm|HoleSize=0mm|Usage=FLASHONLY|Rotation=270.000|XOffset=0mm|YOffset=0mm|HoleType=Round|Shape=RoundedRectangle|*
%AMROUNDEDRECTD24*
21,1,1.23971,0.00000,0,0,270.0*
21,1,0.71388,0.52583,0,0,270.0*
1,1,0.52583,0.00000,-0.35694*
1,1,0.52583,0.00000,0.35694*
1,1,0.52583,0.00000,0.35694*
1,1,0.52583,0.00000,-0.35694*
%
%ADD24ROUNDEDRECTD24*%
%ADD25R,0.25000X0.47500*%
%ADD26R,0.60000X0.70000*%
%ADD27R,0.47500X0.25000*%
%ADD28R,0.52583X1.23971*%
D10*
X3086100Y2711300D02*
D03*
Y2851300D02*
D03*
D12*
X3251200Y3190100D02*
D03*
Y2589200D02*
D03*
Y2389200D02*
D03*
X2692400Y3476600D02*
D03*
X2683400Y2614600D02*
D03*
X3251200Y3490100D02*
D03*
Y3390100D02*
D03*
Y3290100D02*
D03*
X2683400Y2414600D02*
D03*
X2692400Y3176600D02*
D03*
Y3076600D02*
D03*
X2683400Y2514600D02*
D03*
X2692400Y3276600D02*
D03*
Y3376600D02*
D03*
X3251200Y2689200D02*
D03*
Y2489200D02*
D03*
D15*
X2940600Y3251200D02*
D03*
X2850600D02*
D03*
X3015700D02*
D03*
X2966000Y2844800D02*
D03*
X3105700Y3251200D02*
D03*
X2966000Y2235200D02*
D03*
X2876000D02*
D03*
Y2844800D02*
D03*
D18*
X2971000Y2743200D02*
D03*
X2871000D02*
D03*
D20*
X3638700Y3060100D02*
D03*
Y3620100D02*
D03*
X2304900Y3606600D02*
D03*
Y2946600D02*
D03*
X3638700Y2259200D02*
D03*
Y2819200D02*
D03*
X2295900Y2284600D02*
D03*
Y2744600D02*
D03*
D21*
X3549131Y3175000D02*
X3556000D01*
X3517900Y3206231D02*
X3549131Y3175000D01*
X3517900Y3206231D02*
Y3441700D01*
X3314700Y3644900D02*
X3517900Y3441700D01*
X3581400Y3352800D02*
Y3454400D01*
X3213100Y3644900D02*
X3314700D01*
X2856525Y3341075D02*
Y3343828D01*
X3327400Y3708400D02*
X3581400Y3454400D01*
X3054536Y3708400D02*
X3327400D01*
X2578100Y3441700D02*
X2586218D01*
X3203700Y2389200D02*
X3251200D01*
X3125900Y2311400D02*
X3203700Y2389200D01*
X3124500Y2311400D02*
X3125900D01*
X2971800Y3363150D02*
X2974300Y3360650D01*
X2681800Y2616200D02*
X2683400Y2614600D01*
X3000700Y3266200D02*
X3015700Y3251200D01*
X2974300Y3333103D02*
Y3360650D01*
X3000700Y3266200D02*
Y3306703D01*
X2974300Y3333103D02*
X3000700Y3306703D01*
X2601118Y3456600D02*
X2672400D01*
X2692400Y3476600D01*
X2586218Y3441700D02*
X2601118Y3456600D01*
X2925600Y3266200D02*
X2940600Y3251200D01*
X2856525Y3341075D02*
X2925600Y3272000D01*
Y3266200D02*
Y3272000D01*
X2854425Y3344953D02*
Y3378275D01*
X2853300Y3343828D02*
X2854425Y3344953D01*
Y3378275D02*
X2855550Y3379400D01*
X3123200Y3268700D02*
X3146826Y3292326D01*
X3104450Y3252450D02*
Y3254950D01*
X3090700Y3268700D02*
X3104450Y3254950D01*
X3088200Y3268700D02*
X3090700D01*
X3024300Y3332600D02*
X3088200Y3268700D01*
X3024300Y3332600D02*
Y3360650D01*
X3021800Y3363150D02*
X3024300Y3360650D01*
X3207360Y3639160D02*
X3213100Y3644900D01*
X3146826Y3589602D02*
X3196384Y3639160D01*
X3207360D01*
X3146826Y3292326D02*
Y3589602D01*
X2933700Y3619500D02*
X2971800Y3581400D01*
Y3545650D02*
Y3581400D01*
X2894500Y3619500D02*
X2933700D01*
X3351182Y3270100D02*
X3357382Y3263900D01*
X3251200Y3290100D02*
X3271200Y3270100D01*
X3351182D01*
X3357382Y3263900D02*
X3365500D01*
X3002900Y2711300D02*
X3086100D01*
X2971000Y2743200D02*
X3002900Y2711300D01*
X3362900Y3076000D02*
X3365500Y3073400D01*
X2829501Y3076000D02*
X3362900D01*
X3238007Y3041000D02*
X3276600Y3002407D01*
X2825100Y3041000D02*
X3238007D01*
X2921800Y3494704D02*
Y3545650D01*
Y3494704D02*
X2984606Y3431899D01*
X3021800Y3545650D02*
Y3595219D01*
X2934019Y3683000D02*
X3021800Y3595219D01*
X2876800Y2580350D02*
Y2616044D01*
X2860508Y2632335D02*
X2876800Y2616044D01*
X2781300Y2705100D02*
X2854065Y2632335D01*
X2860508D01*
X2374900Y3365500D02*
X2505497D01*
X2594397Y3276600D01*
X2439431Y3289300D02*
X2532200D01*
X2510400Y3420500D02*
X2554300Y3376600D01*
X2352118Y3420500D02*
X2510400D01*
X2554300Y3376600D02*
X2692400D01*
X2565400Y3517900D02*
Y3610800D01*
X3258080Y3383220D02*
X3365200D01*
X3251200Y3390100D02*
X3258080Y3383220D01*
X2532200Y3289300D02*
X2644900Y3176600D01*
X2692400D01*
X2504500Y3039900D02*
X2536400Y3008000D01*
X2792100D02*
X2825100Y3041000D01*
X2536400Y3008000D02*
X2792100D01*
X2514600Y3162300D02*
X2596616Y3080284D01*
X2514600Y3162300D02*
Y3225800D01*
X2688716Y3080284D02*
X2692400Y3076600D01*
X2596616Y3080284D02*
X2688716D01*
X2440664Y2601236D02*
Y3211013D01*
X2527300Y2514600D02*
X2683400D01*
X2440664Y2601236D02*
X2527300Y2514600D01*
X2594397Y3276600D02*
X2692400D01*
X3084333Y3581400D02*
X3086191Y3579541D01*
Y3531259D02*
Y3579541D01*
Y3531259D02*
X3088050Y3529400D01*
X2699500Y3606800D02*
X2705055D01*
X2794900Y3516955D01*
Y3110600D02*
Y3516955D01*
Y3110600D02*
X2829501Y3076000D01*
X2319900Y3388282D02*
X2352118Y3420500D01*
X2319900Y3180497D02*
Y3388282D01*
Y3180497D02*
X2340485Y3159912D01*
Y3153781D02*
Y3159912D01*
X3032447Y3686311D02*
X3054536Y3708400D01*
X3024329Y3686311D02*
X3032447D01*
X2565400Y3610800D02*
X2637600Y3683000D01*
X2934019D01*
X2971800Y2501900D02*
Y2580350D01*
X2984500Y2489200D02*
X3251200D01*
X2971800Y2501900D02*
X2984500Y2489200D01*
X2959717Y2667000D02*
X2971432Y2655284D01*
Y2580717D02*
X2971800Y2580350D01*
X2891613Y2696387D02*
X2921000Y2667000D01*
X2971432Y2580717D02*
Y2655284D01*
X2921000Y2667000D02*
X2959717D01*
X2871000Y2743200D02*
X2891613Y2722587D01*
Y2696387D02*
Y2722587D01*
D22*
X3460900Y2381100D02*
Y2940200D01*
X3214393Y2932407D02*
X3453107D01*
X3460900Y2940200D02*
Y3397100D01*
X3453107Y2932407D02*
X3460900Y2940200D01*
X3252767Y3491667D02*
X3366333D01*
X3460900Y3397100D01*
X3251200Y3490100D02*
X3252767Y3491667D01*
X2849900Y3200400D02*
Y3250500D01*
X2859100Y3153000D02*
X2864100Y3148000D01*
X2859100Y3153000D02*
Y3191200D01*
X2849900Y3200400D02*
X2859100Y3191200D01*
X2849900Y3250500D02*
X2850250Y3250850D01*
X2578100Y2616200D02*
X2681800D01*
X3252800Y2590800D02*
X3352800D01*
X3251200Y2589200D02*
X3252800Y2590800D01*
X3150500Y3136900D02*
X3203700Y3190100D01*
X3251200D01*
X3149600Y3136900D02*
X3150500D01*
X3067993Y2311400D02*
X3124500D01*
X3066800Y2312593D02*
Y2347250D01*
Y2312593D02*
X3067993Y2311400D01*
X2966000Y2844800D02*
Y2847300D01*
X3078080Y2859320D02*
X3086100Y2851300D01*
X2984611Y2847300D02*
X3028411Y2891100D01*
X3028411D02*
X3060191Y2859320D01*
X3078080D01*
X2966000Y2847300D02*
X2984611D01*
X3028411Y2891100D02*
X3028411D01*
X3053859Y3148241D02*
X3054100Y3148000D01*
X2940600Y3190916D02*
Y3251200D01*
X2983275Y3148241D02*
X3053859D01*
X2940600Y3190916D02*
X2983275Y3148241D01*
X3054100Y3153000D02*
X3059100Y3158000D01*
X3064100D02*
X3105700Y3199600D01*
Y3251200D01*
X3059100Y3158000D02*
X3064100D01*
X3054100Y3148000D02*
Y3153000D01*
X2995600Y2984500D02*
X3162300D01*
X2959100Y2942999D02*
Y2948000D01*
X2969100Y2958000D02*
X2995600Y2984500D01*
X2959100Y2953000D02*
X2964100Y2958000D01*
X2969100D01*
X2954100Y2937999D02*
X2959100Y2942999D01*
X2905290Y2937999D02*
X2954100D01*
X2876000Y2847300D02*
Y2908710D01*
X2905290Y2937999D01*
X3162300Y2984500D02*
X3214393Y2932407D01*
X3181600Y2711300D02*
X3203700Y2689200D01*
X3251200D01*
X3086100Y2711300D02*
X3181600D01*
X3086100Y2636043D02*
Y2711300D01*
X3066800Y2616743D02*
X3086100Y2636043D01*
X3066800Y2580350D02*
Y2616743D01*
X2730500Y2844800D02*
X2876000D01*
X2554300Y2414600D02*
X2683400D01*
X2966000Y2235200D02*
Y2237700D01*
X2971306Y2243006D01*
Y2346756D01*
X2971800Y2347250D01*
X2876000Y2235200D02*
Y2237700D01*
X2876800Y2238500D01*
Y2347250D01*
D23*
X3581400Y3352800D02*
D03*
X3556000Y3175000D02*
D03*
X2849900Y3200400D02*
D03*
X2578100Y3441700D02*
D03*
Y2616200D02*
D03*
X3352800Y2590800D02*
D03*
X3201826Y3566820D02*
D03*
X3604600Y2933700D02*
D03*
X3149600Y3136900D02*
D03*
X3124500Y2311400D02*
D03*
X3015700Y3251200D02*
D03*
X2260600Y3054500D02*
D03*
X2635800Y2851700D02*
D03*
X3028411Y2891100D02*
D03*
X2853300Y3343828D02*
D03*
X3213100Y3644900D02*
D03*
X3365500Y3073400D02*
D03*
Y3263900D02*
D03*
X2781300Y2705100D02*
D03*
X2438400Y3289300D02*
D03*
X2565400Y3517900D02*
D03*
X3365200Y3383220D02*
D03*
X3460900Y2381100D02*
D03*
X2730500Y2844800D02*
D03*
X2554300Y2414600D02*
D03*
X2504500Y3039900D02*
D03*
X3276600Y3002407D02*
D03*
X2514600Y3225800D02*
D03*
X2894500Y3619500D02*
D03*
X2440664Y3211013D02*
D03*
X2374900Y3365500D02*
D03*
X3084333Y3581400D02*
D03*
X2984606Y3431899D02*
D03*
X2699500Y3606800D02*
D03*
X2340485Y3153781D02*
D03*
X3024329Y3686311D02*
D03*
X2971306Y2346756D02*
D03*
D24*
X3066800Y2347250D02*
D03*
Y2580350D02*
D03*
X2971800D02*
D03*
Y2347250D02*
D03*
X2876800D02*
D03*
D25*
X2971800Y3363150D02*
D03*
X3021800D02*
D03*
X2971800Y3545650D02*
D03*
X2921800D02*
D03*
X3021800D02*
D03*
X2921800Y3363150D02*
D03*
D26*
X2864100Y3148000D02*
D03*
X3054100D02*
D03*
X2959100Y2948000D02*
D03*
D27*
X2855550Y3379400D02*
D03*
X3088050Y3529400D02*
D03*
X2855550Y3429400D02*
D03*
Y3479400D02*
D03*
Y3529400D02*
D03*
X3088050Y3479400D02*
D03*
Y3429400D02*
D03*
Y3379400D02*
D03*
D28*
X2876800Y2580350D02*
D03*
%TF.MD5,aa5d6f29fbf51f3fec1ce9cefff61eea*%
M02*
