%TF.GenerationSoftware,Altium Limited,Altium Designer,25.8.1 (18)*%
G04 Layer_Physical_Order=1*
G04 Layer_Color=255*
%FSLAX45Y45*%
%MOMM*%
%TF.SameCoordinates,F397BE87-363C-4AE2-8B00-A23A2701063B*%
%TF.FilePolarity,Positive*%
%TF.FileFunction,Copper,L1,Top,Signal*%
%TF.Part,Single*%
G01*
G75*
%TA.AperFunction,SMDPad,CuDef*%
%ADD10R,0.65000X0.65000*%
%ADD11R,0.65000X0.65000*%
%ADD12R,0.40000X1.35000*%
G04:AMPARAMS|DCode=13|XSize=0.55mm|YSize=0.5mm|CornerRadius=0.0625mm|HoleSize=0mm|Usage=FLASHONLY|Rotation=90.000|XOffset=0mm|YOffset=0mm|HoleType=Round|Shape=RoundedRectangle|*
%AMROUNDEDRECTD13*
21,1,0.55000,0.37500,0,0,90.0*
21,1,0.42500,0.50000,0,0,90.0*
1,1,0.12500,0.18750,0.21250*
1,1,0.12500,0.18750,-0.21250*
1,1,0.12500,-0.18750,-0.21250*
1,1,0.12500,-0.18750,0.21250*
%
%ADD13ROUNDEDRECTD13*%
G04:AMPARAMS|DCode=14|XSize=0.76mm|YSize=0.6604mm|CornerRadius=0.08255mm|HoleSize=0mm|Usage=FLASHONLY|Rotation=180.000|XOffset=0mm|YOffset=0mm|HoleType=Round|Shape=RoundedRectangle|*
%AMROUNDEDRECTD14*
21,1,0.76000,0.49530,0,0,180.0*
21,1,0.59490,0.66040,0,0,180.0*
1,1,0.16510,-0.29745,0.24765*
1,1,0.16510,0.29745,0.24765*
1,1,0.16510,0.29745,-0.24765*
1,1,0.16510,-0.29745,-0.24765*
%
%ADD14ROUNDEDRECTD14*%
%ADD15R,1.55000X0.60000*%
G04:AMPARAMS|DCode=16|XSize=1.61mm|YSize=0.58mm|CornerRadius=0.0725mm|HoleSize=0mm|Usage=FLASHONLY|Rotation=90.000|XOffset=0mm|YOffset=0mm|HoleType=Round|Shape=RoundedRectangle|*
%AMROUNDEDRECTD16*
21,1,1.61000,0.43500,0,0,90.0*
21,1,1.46500,0.58000,0,0,90.0*
1,1,0.14500,0.21750,0.73250*
1,1,0.14500,0.21750,-0.73250*
1,1,0.14500,-0.21750,-0.73250*
1,1,0.14500,-0.21750,0.73250*
%
%ADD16ROUNDEDRECTD16*%
G04:AMPARAMS|DCode=17|XSize=0.55mm|YSize=0.5mm|CornerRadius=0.0625mm|HoleSize=0mm|Usage=FLASHONLY|Rotation=0.000|XOffset=0mm|YOffset=0mm|HoleType=Round|Shape=RoundedRectangle|*
%AMROUNDEDRECTD17*
21,1,0.55000,0.37500,0,0,0.0*
21,1,0.42500,0.50000,0,0,0.0*
1,1,0.12500,0.21250,-0.18750*
1,1,0.12500,-0.21250,-0.18750*
1,1,0.12500,-0.21250,0.18750*
1,1,0.12500,0.21250,0.18750*
%
%ADD17ROUNDEDRECTD17*%
%TA.AperFunction,ConnectorPad*%
%ADD18R,2.40000X6.63000*%
%TA.AperFunction,SMDPad,CuDef*%
%ADD19R,0.60000X0.40000*%
%ADD20R,1.80000X1.20000*%
%TA.AperFunction,Conductor*%
%ADD21C,0.20000*%
%ADD22C,0.50000*%
%TA.AperFunction,ViaPad*%
%ADD23C,0.50000*%
D10*
X2731300Y2908300D02*
D03*
X2831300D02*
D03*
D11*
X3086100Y3085300D02*
D03*
Y2985300D02*
D03*
X2247900Y3479000D02*
D03*
Y3379000D02*
D03*
D12*
X2374500Y3614900D02*
D03*
X2439500D02*
D03*
X2504500D02*
D03*
X2569500D02*
D03*
X2634500D02*
D03*
X2699500D02*
D03*
X2764500D02*
D03*
X2829500D02*
D03*
X2894500D02*
D03*
X2959500D02*
D03*
Y3039900D02*
D03*
X2894500D02*
D03*
X2829500D02*
D03*
X2764500D02*
D03*
X2699500D02*
D03*
X2634500D02*
D03*
X2569500D02*
D03*
X2504500D02*
D03*
X2439500D02*
D03*
X2374500D02*
D03*
D13*
X2635800Y2908300D02*
D03*
X2545800D02*
D03*
D14*
X2260600Y3054500D02*
D03*
Y2914500D02*
D03*
D15*
X3234800Y2576500D02*
D03*
Y2376500D02*
D03*
Y2476500D02*
D03*
D16*
X3657600Y2878000D02*
D03*
X3276600D02*
D03*
X3657600Y3599000D02*
D03*
X3276600D02*
D03*
X3530600D02*
D03*
X3403600Y2878000D02*
D03*
Y3599000D02*
D03*
X3530600Y2878000D02*
D03*
D17*
X3149600Y3536400D02*
D03*
Y3626400D02*
D03*
D18*
X2374500Y2514600D02*
D03*
X2959500D02*
D03*
D19*
X2247900Y3168100D02*
D03*
Y3258100D02*
D03*
D20*
X3622300Y2246500D02*
D03*
Y2706500D02*
D03*
D21*
X3156300Y2673700D02*
Y3056281D01*
X3125184Y2488216D02*
Y2642584D01*
X3156300Y3056281D02*
X3228418Y3128400D01*
X3125184Y2642584D02*
X3156300Y2673700D01*
X3162360Y3639160D02*
X3207360D01*
X3128301Y3712501D02*
X3643227D01*
X3657600Y3599000D02*
Y3698129D01*
X3643227Y3712501D02*
X3657600Y3698129D01*
X2764500Y3614900D02*
X2767133Y3617533D01*
Y3700684D02*
X2778950Y3712501D01*
X2767133Y3617533D02*
Y3700684D01*
X2778950Y3712501D02*
X2992512D01*
X3018703Y3686311D01*
X3030700Y3614900D02*
X3128301Y3712501D01*
X3079750Y3091650D02*
X3119260Y3131160D01*
X2634500Y2922300D02*
X2642150Y2914650D01*
X3036100Y2986100D02*
X3086100D01*
X2635800Y2908300D02*
X2638700Y2905400D01*
X2634500Y2922300D02*
Y3039900D01*
X3149600Y3536400D02*
X3152100D01*
X3176780Y3561080D01*
X3657600Y2878000D02*
Y2914700D01*
X3604600Y2933700D02*
X3638600D01*
X3657600Y2914700D01*
X3176780Y3561080D02*
X3196086D01*
X3201826Y3566820D01*
X3143860Y3131160D02*
X3149600Y3136900D01*
X3119260Y3131160D02*
X3143860D01*
X2808800Y2885800D02*
X2831300Y2908300D01*
X2958300D01*
X3036100Y2986100D01*
X2781300Y2713218D02*
X2808800Y2740718D01*
X2781300Y2705100D02*
Y2713218D01*
X2808800Y2740718D02*
Y2885800D01*
X2438400Y3289300D02*
Y3613800D01*
X2567450Y3519950D02*
Y3612850D01*
X2565400Y3517900D02*
X2567450Y3519950D01*
X2504500Y3413700D02*
Y3614900D01*
X2567450Y3612850D02*
X2569500Y3614900D01*
X2504500Y3413700D02*
X2514600Y3403600D01*
X3106181Y3263900D02*
X3365500D01*
X2965804Y3123522D02*
X3106181Y3263900D01*
X2904500Y3127721D02*
X2960700Y3183922D01*
Y3273982D01*
X3069939Y3383220D02*
X3365200D01*
X2894500Y3039900D02*
X2904500Y3049900D01*
X2960700Y3273982D02*
X3069939Y3383220D01*
X2904500Y3049900D02*
Y3127721D01*
X2959500Y3039900D02*
X2965804Y3046204D01*
Y3123522D01*
X3276600Y2878000D02*
Y3002407D01*
X2959500Y3614900D02*
X3030700D01*
X2514600Y3225800D02*
Y3403600D01*
X2564000Y3034400D02*
X2569500Y3039900D01*
Y3128300D02*
X2785028Y3343828D01*
X2853300D01*
X2569500Y3039900D02*
Y3128300D01*
X3207360Y3639160D02*
X3213100Y3644900D01*
X3257600D02*
X3276600Y3625900D01*
Y3599000D02*
Y3625900D01*
X3213100Y3644900D02*
X3257600D01*
X3149600Y3626400D02*
X3162360Y3639160D01*
X2257900Y3168100D02*
X2267900Y3158100D01*
Y3148585D02*
Y3158100D01*
X2247900Y3168100D02*
X2257900D01*
X2558500Y2908300D02*
X2564000Y2913800D01*
X2304119Y3112520D02*
X2329500Y3087139D01*
Y2962045D02*
Y3087139D01*
X2267900Y3148585D02*
X2303965Y3112520D01*
X2304119D01*
X2564000Y2913800D02*
Y3034400D01*
X2383245Y2908300D02*
X2545800D01*
X2329500Y2962045D02*
X2383245Y2908300D01*
X2764500Y3039900D02*
Y3205531D01*
X2847797Y3288829D01*
X2876553D01*
X2921000Y3333276D02*
Y3448896D01*
X2876553Y3288829D02*
X2921000Y3333276D01*
Y3448896D02*
X2959002Y3486899D01*
X3114907D01*
X3115406Y3486400D02*
X3518884D01*
X3114907Y3486899D02*
X3115406Y3486400D01*
X3518884D02*
X3530600Y3498116D01*
Y3611700D01*
X2634500Y3267919D02*
Y3614900D01*
X2537382Y3170800D02*
X2634500Y3267919D01*
X2480877Y3170800D02*
X2537382D01*
X2440664Y3211013D02*
X2480877Y3170800D01*
X2374700Y3365700D02*
Y3614700D01*
X2374500Y3614900D02*
X2374700Y3614700D01*
Y3365700D02*
X2374900Y3365500D01*
X2319900Y3253995D02*
Y3458600D01*
Y3253995D02*
X2439500Y3134395D01*
Y3039900D02*
Y3134395D01*
X2299500Y3479000D02*
X2319900Y3458600D01*
X2247900Y3479000D02*
X2299500D01*
X2839500Y3535900D02*
Y3604900D01*
X2829500Y3614900D02*
X2839500Y3604900D01*
Y3535900D02*
X2853000Y3522400D01*
X3025333D01*
X3084333Y3581400D01*
X2984606Y3347384D02*
Y3431899D01*
X2925700Y3288479D02*
X2984606Y3347384D01*
X2925700Y3198419D02*
Y3288479D01*
X2839500Y3112219D02*
X2925700Y3198419D01*
X2839500Y3049900D02*
Y3112219D01*
X2829500Y3039900D02*
X2839500Y3049900D01*
X2699500Y3606800D02*
Y3614900D01*
X3251200Y3073400D02*
X3352800D01*
X3403600Y3022600D01*
Y2890700D02*
Y3022600D01*
X2369470Y3044930D02*
Y3124796D01*
Y3044930D02*
X2374500Y3039900D01*
X2340485Y3153781D02*
X2369470Y3124796D01*
X3543300Y3275019D02*
Y3352800D01*
X3396681Y3128400D02*
X3543300Y3275019D01*
X3228418Y3128400D02*
X3396681D01*
X3136900Y2476500D02*
X3234800D01*
X3018703Y3686311D02*
X3024329D01*
X3125184Y2488216D02*
X3136900Y2476500D01*
X2247900Y3258100D02*
Y3379000D01*
D22*
X2635800Y2851700D02*
Y2908300D01*
X3239800Y2581500D02*
X3343500D01*
X3234800Y2576500D02*
X3239800Y2581500D01*
X3343500D02*
X3352800Y2590800D01*
X3456300Y2376500D02*
X3460900Y2381100D01*
X3234800Y2376500D02*
X3456300D01*
X2730500Y2907500D02*
X2731300Y2908300D01*
X2260600Y2914500D02*
X2265580D01*
X2273600Y2906480D01*
Y2883115D02*
X2279525Y2877190D01*
X2730500Y2844800D02*
Y2907500D01*
X2273600Y2883115D02*
Y2906480D01*
X2730500Y2825400D02*
Y2844800D01*
X2673700Y2768600D02*
X2730500Y2825400D01*
X2463300Y2768600D02*
X2673700D01*
X2469500Y2414600D02*
X2554300D01*
X2279525Y2774775D02*
Y2877190D01*
Y2774775D02*
X2374500Y2679800D01*
Y2509600D02*
Y2514600D01*
Y2509600D02*
X2469500Y2414600D01*
X2374500Y2679800D02*
X2463300Y2768600D01*
D23*
X3035300Y2895600D02*
D03*
X2635800Y2851700D02*
D03*
X2260600Y3054500D02*
D03*
X2849900Y3200400D02*
D03*
X3015700Y3251200D02*
D03*
X3124500Y2311400D02*
D03*
X3149600Y3136900D02*
D03*
X3604600Y2933700D02*
D03*
X3201826Y3566820D02*
D03*
X3352800Y2590800D02*
D03*
X2578100Y2616200D02*
D03*
Y3441700D02*
D03*
X2781300Y2705100D02*
D03*
X2438400Y3289300D02*
D03*
X2565400Y3517900D02*
D03*
X3365200Y3383220D02*
D03*
X3460900Y2381100D02*
D03*
X2730500Y2844800D02*
D03*
X2554300Y2414600D02*
D03*
X3365500Y3263900D02*
D03*
X2504500Y3039900D02*
D03*
X3276600Y3002407D02*
D03*
X2514600Y3225800D02*
D03*
X2894500Y3619500D02*
D03*
X3213100Y3644900D02*
D03*
X2853300Y3343828D02*
D03*
X2440664Y3211013D02*
D03*
X2374900Y3365500D02*
D03*
X3084333Y3581400D02*
D03*
X2984606Y3431899D02*
D03*
X2699500Y3606800D02*
D03*
X3251200Y3073400D02*
D03*
X2340485Y3153781D02*
D03*
X3543300Y3352800D02*
D03*
X3024329Y3686311D02*
D03*
X2971306Y2346756D02*
D03*
%TF.MD5,b10bc33efca647405df7d9cf67186c4d*%
M02*
