%TF.GenerationSoftware,Altium Limited,Altium Designer,25.8.1 (18)*%
G04 Layer_Color=8421504*
%FSLAX45Y45*%
%MOMM*%
%TF.SameCoordinates,B646849D-B937-4B77-9D6D-868C213BF6CA*%
%TF.FilePolarity,Positive*%
%TF.FileFunction,Paste,Top*%
%TF.Part,Single*%
G01*
G75*
%TA.AperFunction,SMDPad,CuDef*%
G04:AMPARAMS|DCode=10|XSize=0.76mm|YSize=0.6604mm|CornerRadius=0.08255mm|HoleSize=0mm|Usage=FLASHONLY|Rotation=180.000|XOffset=0mm|YOffset=0mm|HoleType=Round|Shape=RoundedRectangle|*
%AMROUNDEDRECTD10*
21,1,0.76000,0.49530,0,0,180.0*
21,1,0.59490,0.66040,0,0,180.0*
1,1,0.16510,-0.29745,0.24765*
1,1,0.16510,0.29745,0.24765*
1,1,0.16510,0.29745,-0.24765*
1,1,0.16510,-0.29745,-0.24765*
%
%ADD10ROUNDEDRECTD10*%
G04:AMPARAMS|DCode=11|XSize=1.61mm|YSize=0.58mm|CornerRadius=0.0725mm|HoleSize=0mm|Usage=FLASHONLY|Rotation=90.000|XOffset=0mm|YOffset=0mm|HoleType=Round|Shape=RoundedRectangle|*
%AMROUNDEDRECTD11*
21,1,1.61000,0.43500,0,0,90.0*
21,1,1.46500,0.58000,0,0,90.0*
1,1,0.14500,0.21750,0.73250*
1,1,0.14500,0.21750,-0.73250*
1,1,0.14500,-0.21750,-0.73250*
1,1,0.14500,-0.21750,0.73250*
%
%ADD11ROUNDEDRECTD11*%
%ADD12R,1.55000X0.60000*%
%ADD13R,0.40000X1.35000*%
%ADD14R,0.65000X0.65000*%
G04:AMPARAMS|DCode=15|XSize=0.55mm|YSize=0.5mm|CornerRadius=0.0625mm|HoleSize=0mm|Usage=FLASHONLY|Rotation=90.000|XOffset=0mm|YOffset=0mm|HoleType=Round|Shape=RoundedRectangle|*
%AMROUNDEDRECTD15*
21,1,0.55000,0.37500,0,0,90.0*
21,1,0.42500,0.50000,0,0,90.0*
1,1,0.12500,0.18750,0.21250*
1,1,0.12500,0.18750,-0.21250*
1,1,0.12500,-0.18750,-0.21250*
1,1,0.12500,-0.18750,0.21250*
%
%ADD15ROUNDEDRECTD15*%
G04:AMPARAMS|DCode=16|XSize=0.55mm|YSize=0.5mm|CornerRadius=0.0625mm|HoleSize=0mm|Usage=FLASHONLY|Rotation=0.000|XOffset=0mm|YOffset=0mm|HoleType=Round|Shape=RoundedRectangle|*
%AMROUNDEDRECTD16*
21,1,0.55000,0.37500,0,0,0.0*
21,1,0.42500,0.50000,0,0,0.0*
1,1,0.12500,0.21250,-0.18750*
1,1,0.12500,-0.21250,-0.18750*
1,1,0.12500,-0.21250,0.18750*
1,1,0.12500,0.21250,0.18750*
%
%ADD16ROUNDEDRECTD16*%
%ADD17R,0.60000X0.40000*%
%ADD18R,0.65000X0.65000*%
%TA.AperFunction,ConnectorPad*%
%ADD19R,2.40000X6.63000*%
%TA.AperFunction,SMDPad,CuDef*%
%ADD20R,1.80000X1.20000*%
D10*
X2260600Y2914500D02*
D03*
Y3054500D02*
D03*
D11*
X3657600Y2878000D02*
D03*
X3276600Y3599000D02*
D03*
Y2878000D02*
D03*
X3657600Y3599000D02*
D03*
X3530600D02*
D03*
X3403600Y2878000D02*
D03*
Y3599000D02*
D03*
X3530600Y2878000D02*
D03*
D12*
X3234800Y2576500D02*
D03*
Y2376500D02*
D03*
Y2476500D02*
D03*
D13*
X2634500Y3039900D02*
D03*
X2569500D02*
D03*
X2374500Y3614900D02*
D03*
X2439500D02*
D03*
X2504500D02*
D03*
X2569500D02*
D03*
X2634500D02*
D03*
X2699500D02*
D03*
X2764500D02*
D03*
X2829500D02*
D03*
X2894500D02*
D03*
X2959500D02*
D03*
Y3039900D02*
D03*
X2894500D02*
D03*
X2829500D02*
D03*
X2764500D02*
D03*
X2699500D02*
D03*
X2504500D02*
D03*
X2439500D02*
D03*
X2374500D02*
D03*
D14*
X3086100Y3085300D02*
D03*
Y2985300D02*
D03*
X2247900Y3479000D02*
D03*
Y3379000D02*
D03*
D15*
X2635800Y2908300D02*
D03*
X2545800D02*
D03*
D16*
X3149600Y3536400D02*
D03*
Y3626400D02*
D03*
D17*
X2247900Y3168100D02*
D03*
Y3258100D02*
D03*
D18*
X2731300Y2908300D02*
D03*
X2831300D02*
D03*
D19*
X2374500Y2514600D02*
D03*
X2959500D02*
D03*
D20*
X3622300Y2246500D02*
D03*
Y2706500D02*
D03*
%TF.MD5,bef305603fb814924eda8a124536da07*%
M02*
