%TF.GenerationSoftware,Altium Limited,Altium Designer,25.8.1 (18)*%
G04 Layer_Color=8388736*
%FSLAX45Y45*%
%MOMM*%
%TF.SameCoordinates,FA375CC0-2FD2-4ECC-8A36-5D8544C57DAF*%
%TF.FilePolarity,Negative*%
%TF.FileFunction,Soldermask,Top*%
%TF.Part,Single*%
G01*
G75*
%TA.AperFunction,SMDPad,CuDef*%
%ADD13R,0.40000X1.35000*%
G04:AMPARAMS|DCode=36|XSize=0.9632mm|YSize=0.8636mm|CornerRadius=0.18415mm|HoleSize=0mm|Usage=FLASHONLY|Rotation=180.000|XOffset=0mm|YOffset=0mm|HoleType=Round|Shape=RoundedRectangle|*
%AMROUNDEDRECTD36*
21,1,0.96320,0.49530,0,0,180.0*
21,1,0.59490,0.86360,0,0,180.0*
1,1,0.36830,-0.29745,0.24765*
1,1,0.36830,0.29745,0.24765*
1,1,0.36830,0.29745,-0.24765*
1,1,0.36830,-0.29745,-0.24765*
%
%ADD36ROUNDEDRECTD36*%
G04:AMPARAMS|DCode=37|XSize=1.8132mm|YSize=0.7832mm|CornerRadius=0.1741mm|HoleSize=0mm|Usage=FLASHONLY|Rotation=90.000|XOffset=0mm|YOffset=0mm|HoleType=Round|Shape=RoundedRectangle|*
%AMROUNDEDRECTD37*
21,1,1.81320,0.43500,0,0,90.0*
21,1,1.46500,0.78320,0,0,90.0*
1,1,0.34820,0.21750,0.73250*
1,1,0.34820,0.21750,-0.73250*
1,1,0.34820,-0.21750,-0.73250*
1,1,0.34820,-0.21750,0.73250*
%
%ADD37ROUNDEDRECTD37*%
%ADD38R,1.75320X0.80320*%
%ADD39R,0.85320X0.85320*%
G04:AMPARAMS|DCode=40|XSize=0.7532mm|YSize=0.7032mm|CornerRadius=0.1641mm|HoleSize=0mm|Usage=FLASHONLY|Rotation=90.000|XOffset=0mm|YOffset=0mm|HoleType=Round|Shape=RoundedRectangle|*
%AMROUNDEDRECTD40*
21,1,0.75320,0.37500,0,0,90.0*
21,1,0.42500,0.70320,0,0,90.0*
1,1,0.32820,0.18750,0.21250*
1,1,0.32820,0.18750,-0.21250*
1,1,0.32820,-0.18750,-0.21250*
1,1,0.32820,-0.18750,0.21250*
%
%ADD40ROUNDEDRECTD40*%
G04:AMPARAMS|DCode=41|XSize=0.7532mm|YSize=0.7032mm|CornerRadius=0.1641mm|HoleSize=0mm|Usage=FLASHONLY|Rotation=0.000|XOffset=0mm|YOffset=0mm|HoleType=Round|Shape=RoundedRectangle|*
%AMROUNDEDRECTD41*
21,1,0.75320,0.37500,0,0,0.0*
21,1,0.42500,0.70320,0,0,0.0*
1,1,0.32820,0.21250,-0.18750*
1,1,0.32820,-0.21250,-0.18750*
1,1,0.32820,-0.21250,0.18750*
1,1,0.32820,0.21250,0.18750*
%
%ADD41ROUNDEDRECTD41*%
%ADD42R,0.80320X0.60320*%
%ADD43R,0.85320X0.85320*%
%TA.AperFunction,ConnectorPad*%
%ADD44R,2.60320X6.83320*%
%TA.AperFunction,SMDPad,CuDef*%
%ADD45R,2.00320X1.40320*%
D13*
X2634500Y3039900D02*
D03*
X2569500D02*
D03*
X2374500Y3614900D02*
D03*
X2439500D02*
D03*
X2504500D02*
D03*
X2569500D02*
D03*
X2634500D02*
D03*
X2699500D02*
D03*
X2764500D02*
D03*
X2829500D02*
D03*
X2894500D02*
D03*
X2959500D02*
D03*
Y3039900D02*
D03*
X2894500D02*
D03*
X2829500D02*
D03*
X2764500D02*
D03*
X2699500D02*
D03*
X2504500D02*
D03*
X2439500D02*
D03*
X2374500D02*
D03*
D36*
X2260600Y2914500D02*
D03*
Y3054500D02*
D03*
D37*
X3657600Y2878000D02*
D03*
X3276600Y3599000D02*
D03*
Y2878000D02*
D03*
X3657600Y3599000D02*
D03*
X3530600D02*
D03*
X3403600Y2878000D02*
D03*
Y3599000D02*
D03*
X3530600Y2878000D02*
D03*
D38*
X3234800Y2576500D02*
D03*
Y2376500D02*
D03*
Y2476500D02*
D03*
D39*
X3086100Y3085300D02*
D03*
Y2985300D02*
D03*
X2247900Y3479000D02*
D03*
Y3379000D02*
D03*
D40*
X2635800Y2908300D02*
D03*
X2545800D02*
D03*
D41*
X3149600Y3536400D02*
D03*
Y3626400D02*
D03*
D42*
X2247900Y3168100D02*
D03*
Y3258100D02*
D03*
D43*
X2731300Y2908300D02*
D03*
X2831300D02*
D03*
D44*
X2374500Y2514600D02*
D03*
X2959500D02*
D03*
D45*
X3622300Y2246500D02*
D03*
Y2706500D02*
D03*
%TF.MD5,ace736570874e656afbdb56afa35f59d*%
M02*
