%TF.GenerationSoftware,Altium Limited,Altium Designer,25.8.1 (18)*%
G04 Layer_Physical_Order=2*
G04 Layer_Color=36540*
%FSLAX45Y45*%
%MOMM*%
%TF.SameCoordinates,2B41D9FC-5AFE-4856-9B1B-66F76C6671FB*%
%TF.FilePolarity,Positive*%
%TF.FileFunction,Copper,L2,Inr,Signal*%
%TF.Part,Single*%
G01*
G75*
%TA.AperFunction,ViaPad*%
%ADD23C,0.50000*%
G36*
X3684330Y3718485D02*
X3700511Y3711785D01*
X3715073Y3702056D01*
X3727456Y3689672D01*
X3737184Y3675110D01*
X3743884Y3658929D01*
X3746004Y3648261D01*
Y2247900D01*
Y2240602D01*
X3743156Y2226285D01*
X3737570Y2212798D01*
X3729460Y2200662D01*
X3719138Y2190340D01*
X3707001Y2182230D01*
X3693515Y2176644D01*
X3679199Y2173796D01*
X2264601D01*
X2250285Y2176644D01*
X2236798Y2182230D01*
X2224662Y2190340D01*
X2214339Y2200662D01*
X2206230Y2212798D01*
X2200644Y2226284D01*
X2197796Y2240601D01*
Y2247900D01*
Y3647900D01*
Y3655982D01*
X2200059Y3667358D01*
X2205864Y3681370D01*
X2214290Y3693980D01*
X2225014Y3704705D01*
X2237624Y3713131D01*
X2251637Y3718935D01*
X2266512Y3721894D01*
X2274095D01*
X2274095Y3721895D01*
X2970144Y3721896D01*
X2982077Y3701896D01*
X2979330Y3695262D01*
Y3677360D01*
X2986180Y3660820D01*
X2998839Y3648162D01*
X3015379Y3641311D01*
X3033280D01*
X3049820Y3648162D01*
X3062479Y3660820D01*
X3069329Y3677360D01*
Y3695262D01*
X3066581Y3701896D01*
X3078515Y3721896D01*
X3658397Y3721897D01*
X3667154Y3721899D01*
X3684330Y3718485D01*
D02*
G37*
%LPC*%
G36*
X3222051Y3689900D02*
X3204149D01*
X3187610Y3683049D01*
X3174951Y3670390D01*
X3168100Y3653851D01*
Y3635949D01*
X3174951Y3619410D01*
X3187610Y3606751D01*
X3204149Y3599900D01*
X3222051D01*
X3238590Y3606751D01*
X3251249Y3619410D01*
X3258100Y3635949D01*
Y3653851D01*
X3251249Y3670390D01*
X3238590Y3683049D01*
X3222051Y3689900D01*
D02*
G37*
G36*
X2903451Y3664500D02*
X2885549D01*
X2869010Y3657649D01*
X2856351Y3644990D01*
X2849500Y3628451D01*
Y3610549D01*
X2856351Y3594010D01*
X2869010Y3581351D01*
X2885549Y3574500D01*
X2903451D01*
X2919991Y3581351D01*
X2932649Y3594010D01*
X2939500Y3610549D01*
Y3628451D01*
X2932649Y3644990D01*
X2919991Y3657649D01*
X2903451Y3664500D01*
D02*
G37*
G36*
X2708451Y3651800D02*
X2690549D01*
X2674010Y3644949D01*
X2661351Y3632290D01*
X2654500Y3615751D01*
Y3597849D01*
X2661351Y3581310D01*
X2674010Y3568651D01*
X2690549Y3561800D01*
X2708451D01*
X2724990Y3568651D01*
X2737649Y3581310D01*
X2744500Y3597849D01*
Y3615751D01*
X2737649Y3632290D01*
X2724990Y3644949D01*
X2708451Y3651800D01*
D02*
G37*
G36*
X3093284Y3626400D02*
X3075382D01*
X3058842Y3619549D01*
X3046184Y3606890D01*
X3039333Y3590351D01*
Y3572449D01*
X3046184Y3555910D01*
X3058842Y3543251D01*
X3075382Y3536400D01*
X3093284D01*
X3109823Y3543251D01*
X3122482Y3555910D01*
X3129333Y3572449D01*
Y3590351D01*
X3122482Y3606890D01*
X3109823Y3619549D01*
X3093284Y3626400D01*
D02*
G37*
G36*
X2574351Y3562900D02*
X2556449D01*
X2539910Y3556049D01*
X2527251Y3543390D01*
X2520400Y3526851D01*
Y3508949D01*
X2527251Y3492410D01*
X2539910Y3479751D01*
X2556449Y3472900D01*
X2574351D01*
X2590890Y3479751D01*
X2603549Y3492410D01*
X2610400Y3508949D01*
Y3526851D01*
X2603549Y3543390D01*
X2590890Y3556049D01*
X2574351Y3562900D01*
D02*
G37*
G36*
X2993557Y3476899D02*
X2975655D01*
X2959115Y3470048D01*
X2946457Y3457389D01*
X2939606Y3440850D01*
Y3422948D01*
X2946457Y3406408D01*
X2959115Y3393750D01*
X2975655Y3386899D01*
X2993557D01*
X3010096Y3393750D01*
X3022755Y3406408D01*
X3029606Y3422948D01*
Y3440850D01*
X3022755Y3457389D01*
X3010096Y3470048D01*
X2993557Y3476899D01*
D02*
G37*
G36*
X3361058Y3437055D02*
X3343156D01*
X3326616Y3430204D01*
X3313958Y3417545D01*
X3307107Y3401006D01*
Y3383104D01*
X3313958Y3366564D01*
X3326616Y3353906D01*
X3343156Y3347055D01*
X3361058D01*
X3377597Y3353906D01*
X3390256Y3366564D01*
X3397107Y3383104D01*
Y3401006D01*
X3390256Y3417545D01*
X3377597Y3430204D01*
X3361058Y3437055D01*
D02*
G37*
G36*
X3590351Y3397800D02*
X3572449D01*
X3555910Y3390949D01*
X3543251Y3378290D01*
X3536400Y3361751D01*
Y3343849D01*
X3543251Y3327310D01*
X3555910Y3314651D01*
X3572449Y3307800D01*
X3590351D01*
X3606890Y3314651D01*
X3619549Y3327310D01*
X3626400Y3343849D01*
Y3361751D01*
X3619549Y3378290D01*
X3606890Y3390949D01*
X3590351Y3397800D01*
D02*
G37*
G36*
X2862251Y3388828D02*
X2844349D01*
X2827810Y3381977D01*
X2815151Y3369319D01*
X2808300Y3352779D01*
Y3334878D01*
X2815151Y3318338D01*
X2827810Y3305679D01*
X2844349Y3298829D01*
X2862251D01*
X2878791Y3305679D01*
X2891449Y3318338D01*
X2898300Y3334878D01*
Y3352779D01*
X2891449Y3369319D01*
X2878791Y3381977D01*
X2862251Y3388828D01*
D02*
G37*
G36*
X3369105Y3303553D02*
X3351203D01*
X3334663Y3296703D01*
X3322005Y3284044D01*
X3315154Y3267505D01*
Y3249603D01*
X3322005Y3233063D01*
X3334663Y3220405D01*
X3351203Y3213554D01*
X3369105D01*
X3385644Y3220405D01*
X3398303Y3233063D01*
X3405153Y3249603D01*
Y3267505D01*
X3398303Y3284044D01*
X3385644Y3296703D01*
X3369105Y3303553D01*
D02*
G37*
G36*
X2383851Y3410500D02*
X2365949D01*
X2349410Y3403649D01*
X2336751Y3390990D01*
X2329900Y3374451D01*
Y3356549D01*
X2336751Y3340010D01*
X2349410Y3327351D01*
X2365949Y3320500D01*
X2380968D01*
X2389729Y3312176D01*
X2395678Y3303751D01*
X2393400Y3298251D01*
Y3280349D01*
X2400251Y3263810D01*
X2412909Y3251151D01*
X2402515Y3236503D01*
X2395664Y3219964D01*
Y3202062D01*
X2402515Y3185522D01*
X2415174Y3172864D01*
X2431713Y3166013D01*
X2449615D01*
X2466155Y3172864D01*
X2478813Y3185522D01*
X2499551Y3183326D01*
X2505649Y3180800D01*
X2523551D01*
X2540090Y3187651D01*
X2552749Y3200310D01*
X2559600Y3216849D01*
Y3234751D01*
X2552749Y3251290D01*
X2540090Y3263949D01*
X2523551Y3270800D01*
X2505649D01*
X2500149Y3268522D01*
X2491724Y3274471D01*
X2483400Y3283232D01*
Y3298251D01*
X2476549Y3314790D01*
X2463890Y3327449D01*
X2447351Y3334300D01*
X2432332D01*
X2423571Y3342624D01*
X2417622Y3351049D01*
X2419900Y3356549D01*
Y3374451D01*
X2413049Y3390990D01*
X2400390Y3403649D01*
X2383851Y3410500D01*
D02*
G37*
G36*
X3564951Y3220000D02*
X3547049D01*
X3530510Y3213149D01*
X3517851Y3200490D01*
X3511000Y3183951D01*
Y3166049D01*
X3517851Y3149510D01*
X3530510Y3136851D01*
X3547049Y3130000D01*
X3564951D01*
X3581490Y3136851D01*
X3594149Y3149510D01*
X3601000Y3166049D01*
Y3183951D01*
X3594149Y3200490D01*
X3581490Y3213149D01*
X3564951Y3220000D01*
D02*
G37*
G36*
X2349436Y3198781D02*
X2331534D01*
X2314995Y3191930D01*
X2302336Y3179272D01*
X2295485Y3162732D01*
Y3144830D01*
X2302336Y3128291D01*
X2314995Y3115632D01*
X2331534Y3108781D01*
X2349436D01*
X2365976Y3115632D01*
X2378634Y3128291D01*
X2385485Y3144830D01*
Y3162732D01*
X2378634Y3179272D01*
X2365976Y3191930D01*
X2349436Y3198781D01*
D02*
G37*
G36*
X3361751Y3143800D02*
X3343849D01*
X3327310Y3136949D01*
X3314651Y3124290D01*
X3307800Y3107751D01*
Y3089849D01*
X3314651Y3073310D01*
X3327310Y3060651D01*
X3343849Y3053800D01*
X3361751D01*
X3378290Y3060651D01*
X3390949Y3073310D01*
X3397800Y3089849D01*
Y3107751D01*
X3390949Y3124290D01*
X3378290Y3136949D01*
X3361751Y3143800D01*
D02*
G37*
G36*
X2513451Y3084900D02*
X2495549D01*
X2479010Y3078049D01*
X2466351Y3065390D01*
X2459500Y3048851D01*
Y3030949D01*
X2466351Y3014410D01*
X2479010Y3001751D01*
X2495549Y2994900D01*
X2513451D01*
X2529990Y3001751D01*
X2542649Y3014410D01*
X2549500Y3030949D01*
Y3048851D01*
X2542649Y3065390D01*
X2529990Y3078049D01*
X2513451Y3084900D01*
D02*
G37*
G36*
X3284906Y3047406D02*
X3267004D01*
X3250464Y3040555D01*
X3237806Y3027896D01*
X3230955Y3011357D01*
Y2993455D01*
X3237806Y2976916D01*
X3250464Y2964257D01*
X3267004Y2957406D01*
X3284906D01*
X3301445Y2964257D01*
X3314104Y2976916D01*
X3320954Y2993455D01*
Y3011357D01*
X3314104Y3027896D01*
X3301445Y3040555D01*
X3284906Y3047406D01*
D02*
G37*
G36*
X2739451Y2889800D02*
X2721549D01*
X2705010Y2882949D01*
X2692351Y2870290D01*
X2685500Y2853751D01*
Y2835849D01*
X2692351Y2819310D01*
X2705010Y2806651D01*
X2721549Y2799800D01*
X2739451D01*
X2755990Y2806651D01*
X2768649Y2819310D01*
X2775500Y2835849D01*
Y2853751D01*
X2768649Y2870290D01*
X2755990Y2882949D01*
X2739451Y2889800D01*
D02*
G37*
G36*
X2790251Y2750100D02*
X2772349D01*
X2755810Y2743249D01*
X2743151Y2730590D01*
X2736300Y2714051D01*
Y2696149D01*
X2743151Y2679610D01*
X2755810Y2666951D01*
X2772349Y2660100D01*
X2790251D01*
X2806790Y2666951D01*
X2819449Y2679610D01*
X2826300Y2696149D01*
Y2714051D01*
X2819449Y2730590D01*
X2806790Y2743249D01*
X2790251Y2750100D01*
D02*
G37*
G36*
X2563251Y2459600D02*
X2545349D01*
X2528810Y2452749D01*
X2516151Y2440090D01*
X2509300Y2423551D01*
Y2405649D01*
X2516151Y2389110D01*
X2528810Y2376451D01*
X2545349Y2369600D01*
X2563251D01*
X2579790Y2376451D01*
X2592449Y2389110D01*
X2599300Y2405649D01*
Y2423551D01*
X2592449Y2440090D01*
X2579790Y2452749D01*
X2563251Y2459600D01*
D02*
G37*
G36*
X3469851Y2426100D02*
X3451949D01*
X3435409Y2419249D01*
X3422751Y2406591D01*
X3415900Y2390051D01*
Y2372149D01*
X3422751Y2355610D01*
X3435409Y2342951D01*
X3451949Y2336100D01*
X3469851D01*
X3486390Y2342951D01*
X3499049Y2355610D01*
X3505900Y2372149D01*
Y2390051D01*
X3499049Y2406591D01*
X3486390Y2419249D01*
X3469851Y2426100D01*
D02*
G37*
G36*
X2980257Y2391756D02*
X2962355D01*
X2945816Y2384905D01*
X2933157Y2372246D01*
X2926306Y2355707D01*
Y2337805D01*
X2933157Y2321265D01*
X2945816Y2308607D01*
X2962355Y2301756D01*
X2980257D01*
X2996796Y2308607D01*
X3009455Y2321265D01*
X3016306Y2337805D01*
Y2355707D01*
X3009455Y2372246D01*
X2996796Y2384905D01*
X2980257Y2391756D01*
D02*
G37*
%LPD*%
D23*
X3604600Y2933700D02*
D03*
X3360154Y3258554D02*
D03*
X3352107Y3392055D02*
D03*
X3390900Y3327400D02*
D03*
X3275955Y3002406D02*
D03*
X3348600Y3022600D02*
D03*
X3352800Y3098800D02*
D03*
X3149600Y3136900D02*
D03*
X3028400Y3251200D02*
D03*
X3581400Y3352800D02*
D03*
X3556000Y3175000D02*
D03*
X2849900Y3200400D02*
D03*
X2578100Y3441700D02*
D03*
Y2616200D02*
D03*
X3352800Y2590800D02*
D03*
X3201826Y3566820D02*
D03*
X3124500Y2311400D02*
D03*
X2260600Y3054500D02*
D03*
X2635800Y2851700D02*
D03*
X3028411Y2891100D02*
D03*
X2853300Y3343828D02*
D03*
X3213100Y3644900D02*
D03*
X2781300Y2705100D02*
D03*
X2438400Y3289300D02*
D03*
X2565400Y3517900D02*
D03*
X3460900Y2381100D02*
D03*
X2730500Y2844800D02*
D03*
X2554300Y2414600D02*
D03*
X2504500Y3039900D02*
D03*
X2514600Y3225800D02*
D03*
X2894500Y3619500D02*
D03*
X2440664Y3211013D02*
D03*
X2374900Y3365500D02*
D03*
X3084333Y3581400D02*
D03*
X2984606Y3431899D02*
D03*
X2699500Y3606800D02*
D03*
X2340485Y3153781D02*
D03*
X3024329Y3686311D02*
D03*
X2971306Y2346756D02*
D03*
%TF.MD5,7020db1789b67e8bb499f02405d077b9*%
M02*
