%TF.GenerationSoftware,Altium Limited,Altium Designer,25.8.1 (18)*%
G04 Layer_Color=16711935*
%FSLAX45Y45*%
%MOMM*%
%TF.SameCoordinates,F397BE87-363C-4AE2-8B00-A23A2701063B*%
%TF.FilePolarity,Negative*%
%TF.FileFunction,Soldermask,Bot*%
%TF.Part,Single*%
G01*
G75*
%TA.AperFunction,SMDPad,CuDef*%
G04:AMPARAMS|DCode=26|XSize=1.23971mm|YSize=0.52583mm|CornerRadius=0.26292mm|HoleSize=0mm|Usage=FLASHONLY|Rotation=270.000|XOffset=0mm|YOffset=0mm|HoleType=Round|Shape=RoundedRectangle|*
%AMROUNDEDRECTD26*
21,1,1.23971,0.00000,0,0,270.0*
21,1,0.71388,0.52583,0,0,270.0*
1,1,0.52583,0.00000,-0.35694*
1,1,0.52583,0.00000,0.35694*
1,1,0.52583,0.00000,0.35694*
1,1,0.52583,0.00000,-0.35694*
%
%ADD26ROUNDEDRECTD26*%
%ADD27R,0.52583X1.23971*%
%ADD36R,0.85320X0.85320*%
G04:AMPARAMS|DCode=38|XSize=0.7532mm|YSize=0.7032mm|CornerRadius=0.1641mm|HoleSize=0mm|Usage=FLASHONLY|Rotation=90.000|XOffset=0mm|YOffset=0mm|HoleType=Round|Shape=RoundedRectangle|*
%AMROUNDEDRECTD38*
21,1,0.75320,0.37500,0,0,90.0*
21,1,0.42500,0.70320,0,0,90.0*
1,1,0.32820,0.18750,0.21250*
1,1,0.32820,0.18750,-0.21250*
1,1,0.32820,-0.18750,-0.21250*
1,1,0.32820,-0.18750,0.21250*
%
%ADD38ROUNDEDRECTD38*%
G04:AMPARAMS|DCode=39|XSize=0.9632mm|YSize=0.8636mm|CornerRadius=0.18415mm|HoleSize=0mm|Usage=FLASHONLY|Rotation=180.000|XOffset=0mm|YOffset=0mm|HoleType=Round|Shape=RoundedRectangle|*
%AMROUNDEDRECTD39*
21,1,0.96320,0.49530,0,0,180.0*
21,1,0.59490,0.86360,0,0,180.0*
1,1,0.36830,-0.29745,0.24765*
1,1,0.36830,0.29745,0.24765*
1,1,0.36830,0.29745,-0.24765*
1,1,0.36830,-0.29745,-0.24765*
%
%ADD39ROUNDEDRECTD39*%
%ADD40R,1.75320X0.80320*%
%ADD45R,2.00320X1.40320*%
%ADD46R,0.80320X0.90320*%
%ADD47R,0.35000X0.57500*%
%ADD48R,0.57500X0.35000*%
D26*
X3066800Y2347250D02*
D03*
Y2580350D02*
D03*
X2971800D02*
D03*
Y2347250D02*
D03*
X2876800D02*
D03*
D27*
Y2580350D02*
D03*
D36*
X2971000Y2743200D02*
D03*
X2871000D02*
D03*
D38*
X2966000Y2844800D02*
D03*
X3015700Y3251200D02*
D03*
X2850600D02*
D03*
X2876000Y2844800D02*
D03*
X3105700Y3251200D02*
D03*
X2940600D02*
D03*
X2966000Y2235200D02*
D03*
X2876000D02*
D03*
D39*
X3086100Y2838600D02*
D03*
Y2698600D02*
D03*
D40*
X2683400Y2614600D02*
D03*
X2692400Y3476600D02*
D03*
X3251200Y2389200D02*
D03*
Y2589200D02*
D03*
Y3190100D02*
D03*
Y3490100D02*
D03*
Y3390100D02*
D03*
Y3290100D02*
D03*
X2683400Y2414600D02*
D03*
X2692400Y3176600D02*
D03*
Y3076600D02*
D03*
X2683400Y2514600D02*
D03*
X2692400Y3276600D02*
D03*
Y3376600D02*
D03*
X3251200Y2689200D02*
D03*
Y2489200D02*
D03*
D45*
X3638700Y3060100D02*
D03*
Y3620100D02*
D03*
X2304900Y3606600D02*
D03*
Y2946600D02*
D03*
X3638700Y2259200D02*
D03*
Y2819200D02*
D03*
X2295900Y2284600D02*
D03*
Y2744600D02*
D03*
D46*
X2864100Y3148000D02*
D03*
X2959100Y2948000D02*
D03*
X3054100Y3148000D02*
D03*
D47*
X2971800Y3363150D02*
D03*
Y3545650D02*
D03*
X3021800Y3363150D02*
D03*
X2921800Y3545650D02*
D03*
X3021800D02*
D03*
X2921800Y3363150D02*
D03*
D48*
X2855550Y3379400D02*
D03*
X3088050Y3529400D02*
D03*
X2855550Y3429400D02*
D03*
Y3479400D02*
D03*
Y3529400D02*
D03*
X3088050Y3479400D02*
D03*
Y3429400D02*
D03*
Y3379400D02*
D03*
%TF.MD5,5171afd70df03c2ed54446e6953ea66d*%
M02*
